<?xml version="1.0" standalone="no"?>
<!DOCTYPE svg PUBLIC "-//W3C//DTD SVG 20010904//EN"
 "http://www.w3.org/TR/2001/REC-SVG-20010904/DTD/svg10.dtd">
<svg version="1.0" xmlns="http://www.w3.org/2000/svg"
 width="154.000000pt" height="154.000000pt" viewBox="0 0 154.000000 154.000000"
 preserveAspectRatio="xMidYMid meet">
<metadata>
Created by potrace 1.11, written by Peter Selinger 2001-2013
</metadata>
<g transform="translate(0.000000,154.000000) scale(0.100000,-0.100000)"
fill="#000000" stroke="none">
<path d="M657 1529 c-168 -27 -311 -101 -432 -223 -149 -151 -226 -345 -220
-558 8 -283 166 -533 414 -655 53 -27 103 -50 111 -51 8 -2 23 -6 33 -8 9 -2
27 -7 40 -10 33 -9 126 -19 172 -18 59 1 178 15 190 22 6 4 12 7 15 7 32 4
140 48 140 57 0 5 6 8 13 8 31 0 181 124 237 196 60 77 124 204 133 263 3 16
8 35 12 41 4 6 9 34 11 63 3 29 7 58 9 64 12 37 -4 42 -129 42 l-123 0 2 -37
c0 -20 -1 -41 -4 -47 -3 -5 -7 -18 -8 -27 -25 -157 -203 -346 -363 -385 -75
-18 -202 -23 -245 -9 -37 11 -54 16 -60 15 -3 0 -32 14 -63 31 -143 76 -246
210 -278 361 -2 13 -5 60 -5 104 -2 365 386 615 719 464 23 -11 46 -17 51 -14
11 6 124 205 119 210 -15 15 -117 58 -179 75 -83 22 -234 32 -312 19z m-147
-1263 c0 -3 -4 -8 -10 -11 -5 -3 -10 -1 -10 4 0 6 5 11 10 11 6 0 10 -2 10 -4z
m464 -84 c3 -5 -1 -9 -9 -9 -8 0 -12 4 -9 9 3 4 7 8 9 8 2 0 6 -4 9 -8z"/>
</g>
</svg>
