<?xml version="1.0" standalone="no"?>
<!DOCTYPE svg PUBLIC "-//W3C//DTD SVG 20010904//EN"
 "http://www.w3.org/TR/2001/REC-SVG-20010904/DTD/svg10.dtd">
<svg version="1.0" xmlns="http://www.w3.org/2000/svg"
 width="512.000000pt" height="512.000000pt" viewBox="0 0 512.000000 512.000000"
 preserveAspectRatio="xMidYMid meet">
<metadata>
Created by potrace 1.11, written by Peter Selinger 2001-2013
</metadata>
<g transform="translate(0.000000,512.000000) scale(0.100000,-0.100000)"
fill="#000000" stroke="none">
<path d="M2285 5109 c-503 -61 -962 -253 -1345 -563 -176 -142 -389 -378 -511
-566 -292 -449 -425 -891 -427 -1420 0 -229 7 -314 49 -523 109 -544 421
-1069 849 -1429 167 -141 436 -316 466 -304 8 3 13 0 11 -7 -1 -7 4 -11 11
-10 6 2 12 -1 12 -6 0 -12 79 -43 91 -35 5 3 8 0 7 -8 -2 -7 5 -12 15 -12 9 1
17 -2 17 -6 0 -4 15 -13 33 -20 17 -7 41 -16 52 -20 49 -20 111 -42 125 -45
37 -8 45 -10 50 -17 3 -3 19 -8 35 -10 17 -2 32 -6 35 -9 5 -6 186 -50 227
-55 12 -1 27 -5 32 -9 6 -3 11 0 11 7 0 10 2 10 9 -1 6 -8 20 -12 39 -9 17 2
29 1 27 -3 -7 -11 63 -16 81 -6 12 7 15 6 10 -2 -5 -7 5 -11 31 -12 289 -8
353 -8 346 4 -5 9 -3 9 8 0 8 -6 28 -10 44 -8 17 2 59 6 95 9 36 4 74 8 85 10
11 3 33 5 48 5 20 1 26 5 21 14 -5 8 -2 8 9 -2 9 -7 17 -9 17 -4 0 6 11 9 25
8 14 -2 25 1 25 6 0 6 4 8 8 5 8 -4 93 10 122 21 8 3 22 7 30 8 8 2 24 6 35 9
11 3 47 12 79 21 33 9 78 25 101 36 23 11 51 21 63 24 36 7 141 58 136 67 -3
4 1 5 9 2 13 -4 102 37 197 93 95 55 116 68 128 80 7 7 17 13 21 13 4 0 19 9
32 20 12 12 38 30 56 41 18 12 30 26 27 31 -5 7 -2 8 6 3 7 -4 15 -4 19 1 3 5
36 33 74 63 37 29 67 56 67 59 0 4 13 16 29 27 16 10 27 23 25 27 -3 4 1 8 8
8 8 0 22 10 32 21 15 18 16 23 5 31 -11 7 -9 8 4 4 13 -4 31 8 65 44 86 92
127 144 125 158 0 7 1 11 4 8 8 -7 56 48 95 109 18 28 36 52 40 53 5 2 8 8 8
14 0 5 10 24 23 41 32 47 45 67 70 117 12 25 24 47 27 50 5 5 45 86 89 179 11
24 18 47 16 52 -3 4 -1 9 4 11 14 4 72 178 64 191 -3 6 -1 7 5 3 11 -7 16 12
15 51 -1 7 2 13 6 13 7 0 36 119 36 145 0 6 3 12 7 15 4 3 9 28 12 55 3 28 6
50 7 50 1 0 3 9 5 20 1 11 6 36 9 55 4 19 7 72 8 116 1 45 5 80 8 78 3 -1 5
35 5 81 0 75 -2 84 -17 80 -10 -3 -20 -1 -24 5 -7 12 -25 4 -25 -11 0 -6 5 -7
12 -3 7 5 8 3 3 -6 -6 -10 -10 -10 -19 2 -15 21 -38 27 -59 16 -12 -6 -23 -6
-32 2 -10 8 -16 7 -24 -7 -7 -13 -10 -14 -11 -4 0 8 -3 11 -7 8 -3 -4 -12 -2
-19 4 -11 9 -15 7 -20 -6 -4 -9 -10 -12 -13 -7 -3 6 -15 12 -26 14 -15 2 -20
-2 -18 -17 1 -17 0 -18 -10 -4 -19 24 -47 31 -54 13 -3 -9 -8 -11 -12 -6 -3 6
-15 12 -26 14 -15 2 -20 -2 -18 -17 1 -17 0 -18 -10 -4 -13 17 -52 35 -42 19
4 -6 -3 -8 -17 -6 -13 2 -29 -1 -36 -7 -7 -5 -15 -7 -19 -3 -3 3 -1 6 5 6 7 0
12 5 12 10 0 7 -7 7 -21 0 -15 -9 -24 -8 -36 2 -14 11 -15 10 -9 -10 5 -13 3
-22 -3 -22 -6 0 -10 5 -8 12 3 17 -27 16 -34 -1 -9 -22 2 -62 15 -55 6 3 4 0
-4 -8 -17 -14 -20 -32 -8 -44 4 -4 4 -12 -1 -18 -5 -6 -11 -42 -15 -80 -4 -38
-9 -73 -12 -77 -3 -5 1 -9 8 -9 9 0 10 -2 1 -8 -6 -4 -13 -20 -16 -37 -3 -16
-9 -43 -13 -60 -4 -16 -8 -44 -8 -62 -1 -17 -4 -29 -7 -28 -3 2 -16 -31 -29
-73 -13 -42 -34 -102 -47 -131 -13 -30 -21 -61 -18 -68 2 -8 1 -12 -3 -9 -12
7 -44 -63 -36 -77 4 -7 4 -9 -1 -5 -4 4 -13 -2 -20 -15 -7 -12 -22 -39 -33
-60 -12 -20 -31 -54 -43 -74 -22 -40 -26 -45 -119 -165 -32 -42 -57 -79 -54
-82 2 -3 1 -4 -3 -1 -10 8 -54 -45 -47 -57 4 -6 3 -8 -3 -5 -14 9 -146 -121
-137 -135 4 -7 3 -8 -5 -4 -15 9 -73 -32 -65 -46 4 -6 3 -8 -3 -5 -9 6 -93
-51 -145 -97 -10 -9 -20 -16 -23 -16 -3 0 -9 0 -14 0 -5 0 -16 -6 -23 -13 -7
-6 -33 -23 -58 -36 -25 -14 -48 -29 -51 -34 -3 -5 -10 -9 -15 -9 -15 1 -78
-31 -86 -42 -4 -6 -8 -8 -8 -4 0 4 -30 -4 -67 -18 -81 -29 -96 -35 -103 -36
-3 -1 -20 -7 -37 -15 -18 -7 -33 -10 -33 -7 0 4 -7 0 -17 -7 -9 -8 -18 -12
-20 -10 -6 6 -123 -21 -119 -28 2 -3 -16 -6 -40 -7 -87 -2 -105 -4 -99 -13 3
-5 0 -13 -6 -17 -8 -4 -9 -3 -5 5 6 9 -6 11 -44 10 -28 -2 -53 -6 -56 -11 -3
-5 -10 -5 -16 -1 -15 8 -111 8 -126 0 -6 -4 -14 -3 -17 3 -5 8 -15 6 -31 -5
-15 -9 -23 -11 -22 -4 2 6 -5 13 -14 14 -10 2 -18 -2 -18 -8 0 -8 -3 -7 -9 1
-4 8 -11 13 -15 12 -6 -3 -117 7 -171 15 -37 5 -59 10 -110 23 -22 6 -52 13
-67 16 -16 2 -55 14 -88 26 -33 12 -65 18 -71 14 -7 -4 -9 -3 -6 3 7 12 -62
35 -76 26 -6 -3 -7 -1 -3 5 6 10 -6 17 -18 10 -2 -2 -13 6 -25 16 -12 11 -21
16 -21 12 0 -3 -11 1 -25 10 -14 9 -25 12 -25 8 0 -5 -4 -4 -8 2 -4 6 -23 19
-42 29 -63 32 -224 140 -300 202 -404 326 -663 808 -708 1318 -23 266 5 522
83 761 176 537 574 970 1085 1181 180 75 343 117 535 140 75 9 319 9 405 0 66
-7 84 -10 180 -28 156 -30 382 -112 522 -188 l57 -32 15 23 c7 13 58 100 112
193 53 94 119 208 146 254 27 47 45 88 41 92 -19 18 -250 130 -346 167 -172
67 -387 124 -552 147 -27 4 -63 9 -80 12 -57 9 -500 10 -570 2z m2378 -2576
c-5 -12 -3 -14 7 -8 9 6 11 4 5 -4 -5 -9 -11 -9 -17 -3 -6 6 -7 15 -4 21 11
17 16 13 9 -6z m67 7 c0 -5 -5 -10 -11 -10 -5 0 -7 5 -4 10 3 6 8 10 11 10 2
0 4 -4 4 -10z m53 -10 c-3 -12 -8 -19 -11 -16 -5 6 5 36 12 36 2 0 2 -9 -1
-20z m67 10 c0 -5 -5 -10 -11 -10 -5 0 -7 5 -4 10 3 6 8 10 11 10 2 0 4 -4 4
-10z m175 1 c-3 -6 3 -14 12 -20 10 -6 13 -11 7 -11 -15 0 -36 25 -27 33 10
10 15 8 8 -2z m-111 -20 c12 -13 14 -21 6 -26 -6 -4 -9 -1 -8 7 2 7 -2 12 -8
11 -6 -1 -11 5 -11 13 0 18 0 18 21 -5z m176 15 c0 -2 -8 -10 -17 -17 -16 -13
-17 -12 -4 4 13 16 21 21 21 13z m-487 -26 c10 -12 9 -12 -4 -2 -9 6 -18 9
-21 6 -3 -3 -9 -1 -12 4 -9 15 22 8 37 -8z m263 5 c-1 -8 -5 -17 -8 -21 -5 -4
-4 16 1 34 3 9 9 -1 7 -13z m139 6 c3 -5 2 -12 -3 -15 -5 -3 -9 1 -9 9 0 17 3
19 12 6z m-425 -915 c0 -2 -8 -10 -17 -17 -16 -13 -17 -12 -4 4 13 16 21 21
21 13z m-56 -652 c3 -8 2 -12 -4 -9 -6 3 -10 10 -10 16 0 14 7 11 14 -7z
m-513 -71 c13 -16 12 -17 -3 -4 -10 7 -18 15 -18 17 0 8 8 3 21 -13z m-2247
-241 c3 -5 -1 -9 -9 -9 -8 0 -12 4 -9 9 3 4 7 8 9 8 2 0 6 -4 9 -8z m1531 -2
c3 -6 -1 -7 -9 -4 -18 7 -21 14 -7 14 6 0 13 -4 16 -10z m160 -160 c-3 -5 -12
-10 -18 -10 -7 0 -6 4 3 10 19 12 23 12 15 0z m-1614 -167 c13 -16 12 -17 -3
-4 -17 13 -22 21 -14 21 2 0 10 -8 17 -17z m59 -189 c0 -8 -19 -13 -24 -6 -3
5 1 9 9 9 8 0 15 -2 15 -3z"/>
</g>
</svg>
